<svg width="15" height="16" viewBox="0 0 15 16" fill="none" xmlns="http://www.w3.org/2000/svg">
<path fill-rule="evenodd" clip-rule="evenodd" d="M13.77 8C13.77 11.4628 10.9628 14.27 7.5 14.27C4.03717 14.27 1.23 11.4628 1.23 8C1.23 4.53717 4.03717 1.73 7.5 1.73C10.9628 1.73 13.77 4.53717 13.77 8ZM15 8C15 12.1421 11.6421 15.5 7.5 15.5C3.35786 15.5 0 12.1421 0 8C0 3.85786 3.35786 0.5 7.5 0.5C11.6421 0.5 15 3.85786 15 8ZM7.93689 9.3196H6.59101V9.19887C6.59456 7.95597 6.92837 7.576 7.52496 7.19958C7.96175 6.92259 8.29911 6.61364 8.29911 6.14844C8.29911 5.65483 7.91203 5.33523 7.43263 5.33523C6.96743 5.33523 6.53774 5.64418 6.51644 6.22301H5.06757C5.09953 4.80256 6.15067 4.12784 7.43973 4.12784C8.84953 4.12784 9.85095 4.85227 9.85095 6.09517C9.85095 6.92969 9.41772 7.45171 8.75365 7.84588C8.19257 8.18324 7.94399 8.50639 7.93689 9.19887V9.3196ZM8.14286 10.7401C8.13931 11.2124 7.74513 11.5923 7.29059 11.5923C6.82184 11.5923 6.43476 11.2124 6.43831 10.7401C6.43476 10.2749 6.82184 9.89489 7.29059 9.89489C7.74513 9.89489 8.13931 10.2749 8.14286 10.7401Z" fill="#CBCBCB"/>
</svg>
